# xmcd CD database file
#
# Track frame offsets:
#	150
#	16457
#	32937
#	49035
#	70765
#	94657
#	122131
#	143006
#	167049
#	188417
#	206636
#	226275
#	242771
#	266092
#	277244
#	301228
#	318610
#	336527
#
# Disc length: 4788 seconds
#
# Revision: 1
# Processed by: cddbd v1.5.2PL0 Copyright (c) Steve Scherf et al.
# Submitted via: CDex 1.51
#
DISCID=0b12b212
DTITLE=Various Artist - ZM-DR-CD-3
DYEAR=1900
DGENRE=Blues
TTITLE0=Alice Cooper - School's Out 
TTITLE1=Peter Framton - Show Me The Way
TTITLE2=Rainbow - Since You Been Gone
TTITLE3=Peter Gabriel - Sledgehammer
TTITLE4=Deep Purple - Smoke On The Water
TTITLE5=Guns and Roses - Sweet Child Of Mine
TTITLE6=Thin Lizzy - The Boys Are Back In Town
TTITLE7=Europe - The Final Countdown
TTITLE8=Steve Miller Band The - The Joker
TTITLE9=Huey Lewis and The News - The Power Of Love
TTITLE10=Steve Winwood - Valerie
TTITLE11=Aerosmith - Walk This Way
TTITLE12=Starship - We Built This City
TTITLE13=Queen - We Will Rock You
TTITLE14=Scorpions The - Wind Of Change
TTITLE15=Bachman Turner Overdrive - You Ain't Seen Nothing Yet
TTITLE16=Bon Jovi - You Give Love A Bad Name
TTITLE17=John Farnham - You're The Voice
EXTD=
EXTT0=
EXTT1=
EXTT2=
EXTT3=
EXTT4=
EXTT5=
EXTT6=
EXTT7=
EXTT8=
EXTT9=
EXTT10=
EXTT11=
EXTT12=
EXTT13=
EXTT14=
EXTT15=
EXTT16=
EXTT17=
PLAYORDER=
